<svg width="115" height="48" viewBox="0 0 115 48" fill="none" xmlns="http://www.w3.org/2000/svg">
<path d="M99.3889 20.9596C97.4425 21.408 92.3199 21.6661 92.3199 21.6661L91.6711 23.7041C91.6711 23.7041 94.2257 23.4868 96.0909 23.677C96.0909 23.677 96.6992 23.609 96.7667 24.3699C96.7938 25.0764 96.7127 25.8373 96.7127 25.8373C96.7127 25.8373 96.6721 26.2992 96.0233 26.4079C95.3205 26.5302 90.5088 26.7068 90.5088 26.7068L89.7248 29.3562C89.7248 29.3562 89.441 29.9676 90.0898 29.791C90.698 29.6279 95.7395 28.6769 96.4018 28.8127C97.1046 28.9894 97.8886 29.9269 97.6588 30.7964C97.3885 31.8562 92.3605 35.0898 89.2923 34.8588C89.2923 34.8588 87.6839 34.9675 86.3188 32.7801C85.0482 30.7013 86.8053 26.7476 86.8053 26.7476C86.8053 26.7476 86.0079 24.8998 86.5891 24.2884C86.5891 24.2884 86.9405 23.9759 87.9407 23.8944L89.1707 21.3265C89.1707 21.3265 87.765 21.4216 86.927 20.389C86.143 19.3972 86.089 18.9488 86.6837 18.6771C87.319 18.3646 93.1714 17.2912 97.1992 17.4271C97.1992 17.4271 98.6049 17.2912 99.8079 19.7368C99.7943 19.7368 100.389 20.7287 99.3889 20.9596ZM84.2373 30.8236C83.7237 32.0464 82.3585 33.3507 80.669 32.5355C78.993 31.7203 76.3303 26.2449 76.3303 26.2449C76.3303 26.2449 75.3166 24.2069 75.1274 24.2476C75.1274 24.2476 74.9111 23.8536 74.776 26.0818C74.6408 28.31 74.803 32.6442 73.9245 33.3235C73.0865 34.0029 72.0728 33.7311 71.5456 32.9295C71.0726 32.1415 70.8698 30.2665 71.1266 26.9785C71.4375 23.6906 72.1944 20.1852 73.1676 19.0847C74.1407 17.9977 74.9247 18.7858 75.222 19.0711C75.222 19.0711 76.5196 20.2531 78.6686 23.7313L79.0471 24.3699C79.0471 24.3699 80.9934 27.6579 81.1961 27.6443C81.1961 27.6443 81.3583 27.7937 81.4935 27.685C81.6962 27.6307 81.6152 26.5709 81.6152 26.5709C81.6152 26.5709 81.2097 22.9976 79.439 16.938C79.439 16.938 79.1687 16.1771 79.3579 15.4706C79.5337 14.7505 80.25 15.0902 80.25 15.0902C80.25 15.0902 83.0073 16.476 84.3319 20.9868C85.643 25.5384 84.7509 29.6008 84.2373 30.8236ZM70.6941 19.2341C70.4643 19.6961 70.3292 20.3618 69.1668 20.5384C69.1668 20.5384 58.043 21.2993 57.5159 22.0873C57.5159 22.0873 57.1239 22.5493 57.7321 22.6851C58.3404 22.8074 60.8544 23.1471 62.0708 23.215C63.3684 23.2286 67.7476 23.2694 69.3155 25.2394C69.3155 25.2394 70.2481 26.1769 70.2075 28.2965C70.167 30.4703 69.7885 31.2312 68.9505 32.0192C68.072 32.7529 60.53 36.1496 55.6642 30.9323C55.6642 30.9323 53.4205 28.4187 56.4346 26.5166C56.4346 26.5166 58.6107 25.1987 64.1388 26.7476C64.1388 26.7476 65.8148 27.359 65.7337 27.9704C65.6391 28.6225 64.355 29.3155 62.4898 29.2747C60.6787 29.2203 59.3541 28.3508 59.6109 28.4867C59.8542 28.5818 57.6646 27.4269 56.9887 28.2149C56.3129 28.935 56.4751 29.3834 57.1374 29.8317C58.8269 30.7964 65.3552 30.4567 67.3016 28.2829C67.3016 28.2829 68.072 27.3997 66.8961 26.6796C65.7202 26.0003 62.3547 25.5927 61.0436 25.5248C59.7866 25.4568 55.11 25.5384 54.4342 24.2884C54.4342 24.2884 53.7584 23.446 54.5018 21.0547C55.2857 18.5548 60.7327 17.5901 63.0845 17.3727C63.0845 17.3727 69.5588 17.1418 70.7482 18.4733C70.7347 18.4733 70.8969 18.7858 70.6941 19.2341ZM52.3122 33.8942C51.5282 34.4784 49.8658 34.2203 49.3927 33.5681C48.9196 32.9839 48.7574 30.6605 48.852 27.0193C48.9467 23.3373 49.0277 18.7722 49.8117 18.0521C50.6497 17.3184 51.1633 17.957 51.4877 18.4597C51.8391 18.9488 52.2581 19.4923 52.3527 20.6471C52.4338 21.802 52.7041 27.8617 52.7041 27.8617C52.7041 27.8617 53.0556 33.3235 52.3122 33.8942ZM54.0017 14.3565C51.7175 15.1173 50.1496 14.8592 48.825 14.2886C48.2438 15.3076 47.9059 15.6201 47.4599 15.688C46.8111 15.7559 46.2299 14.7098 46.1218 14.3701C46.0137 14.1119 45.7028 13.6772 46.0812 12.6446C44.7837 11.4761 44.6891 9.90006 44.9053 8.84029C45.2297 7.61749 47.4193 2.97084 54.0828 2.42737C54.0828 2.42737 57.3402 2.18281 57.8943 3.93549H57.9889C57.9889 3.93549 61.1517 3.94908 61.0841 6.77511C61.0436 9.61473 57.5699 13.1473 54.0017 14.3565ZM47.7843 8.06585C47.1085 9.15279 47.0814 9.80495 47.3923 10.2533C48.1627 9.07127 49.5684 7.20989 51.6364 5.79687C50.0415 5.93274 48.7034 6.62566 47.7843 8.06585ZM56.9887 6.24524C54.8937 6.55773 51.6499 9.38376 50.109 11.6935C52.4744 12.1283 56.6508 11.9652 58.5026 8.17454C58.489 8.17454 59.3811 5.82405 56.9887 6.24524ZM113.865 28.1334C112.608 30.3345 109.08 34.9268 104.376 33.8534C102.822 37.6441 101.524 41.462 100.781 47.1956C100.781 47.1956 100.619 48.3097 99.6997 47.9156C98.7941 47.5896 97.2803 46.0679 96.983 43.9619C96.6586 41.1902 97.8886 36.5028 100.389 31.1361C99.6592 29.9404 99.1591 28.2285 99.5916 25.7965C99.5916 25.7965 100.227 21.2857 104.728 17.2097C104.728 17.2097 105.268 16.7342 105.579 16.8836C105.931 17.0331 105.768 18.5004 105.485 19.2069C105.201 19.9135 103.187 23.4188 103.187 23.4188C103.187 23.4188 101.93 25.7829 102.281 27.6443C104.647 23.9895 110.026 16.6119 113.365 18.9352C114.486 19.7368 115 21.4895 115 23.3781C114.986 25.0492 114.595 26.8155 113.865 28.1334ZM112.891 22.3455C112.891 22.3455 112.702 20.8917 111.297 22.4949C110.08 23.84 107.891 26.3807 106.12 29.8182C107.972 29.6144 109.756 28.5954 110.296 28.0791C111.175 27.291 113.216 25.1715 112.891 22.3455ZM47.2707 24.1933C47.0138 27.4812 45.7568 33.011 36.8497 35.742C30.9702 37.5218 25.4151 36.6659 22.3874 35.8914C22.3199 37.1006 22.1847 37.6169 21.9955 37.8207C21.7387 38.0789 19.8194 39.193 18.7651 37.6169C18.2921 36.8697 18.0488 35.511 17.9136 34.3018C11.1015 31.1497 7.96574 26.6117 7.84409 26.4079C7.69542 26.2584 6.14106 24.628 7.69542 22.6308C9.15516 20.8238 13.9264 19.0167 18.2245 18.2831C18.3732 14.5875 18.8057 11.8022 19.3193 10.525C19.941 9.0441 20.725 10.3756 21.4008 11.381C21.9685 12.1283 22.3064 15.3483 22.3334 17.9162C25.1447 17.7803 26.8072 17.9841 29.943 18.5548C34.0248 19.3021 36.7551 21.3944 36.5118 23.7721C36.3361 26.109 34.2006 27.0736 33.3896 27.1416C32.5381 27.2095 31.2135 26.5981 31.2135 26.5981C30.3079 26.1633 31.1459 25.7829 32.2407 25.3074C33.4301 24.7231 33.1598 24.1253 33.1598 24.1253C32.7138 22.821 27.4155 21.9107 22.1442 21.9107C22.1171 24.8318 22.2658 29.6823 22.3334 32.5083C26.0233 33.2148 28.7806 33.079 28.7806 33.079C28.7806 33.079 42.2426 32.6985 42.6481 24.0574C43.0671 15.4027 29.2266 7.10119 18.9949 4.46537C8.77671 1.77521 2.9918 3.65018 2.4917 3.90832C1.95106 4.18006 2.45116 4.26157 2.45116 4.26157C2.45116 4.26157 3.00532 4.34309 3.96496 4.66917C4.97867 4.99526 4.19474 5.52514 4.19474 5.52514C2.45116 6.08219 0.491316 5.72894 0.112864 4.92733C-0.265588 4.12571 0.369673 3.40561 1.09954 2.37302C1.82942 1.28609 2.62687 1.32685 2.62687 1.32685C15.2645 -3.07524 30.6593 4.88656 30.6593 4.88656C45.081 12.237 47.541 20.8509 47.2707 24.1933ZM9.12813 23.7449C7.69542 24.4514 8.68209 25.4704 8.68209 25.4704C11.3718 28.378 14.6833 30.1986 17.8325 31.3263C18.1975 26.3128 18.1434 24.5465 18.1839 22.0194C13.2641 22.3591 10.4257 23.1471 9.12813 23.7449Z" fill="white"/>
</svg>
