<svg width="121" height="60" viewBox="0 0 121 60" fill="none" xmlns="http://www.w3.org/2000/svg">
<path d="M85.3514 38.8431C83.68 39.1939 79.2809 39.3959 79.2809 39.3959L78.7237 40.9904C78.7237 40.9904 80.9175 40.8203 82.5193 40.9692C82.5193 40.9692 83.0416 40.916 83.0996 41.5113C83.1228 42.0641 83.0532 42.6594 83.0532 42.6594C83.0532 42.6594 83.0184 43.0208 82.4612 43.1059C81.8577 43.2016 77.7255 43.3398 77.7255 43.3398L77.0523 45.4127C77.0523 45.4127 76.8086 45.891 77.3657 45.7529C77.888 45.6253 82.2175 44.8812 82.7862 44.9875C83.3898 45.1257 84.063 45.8592 83.8657 46.5395C83.6336 47.3687 79.3157 49.8987 76.6809 49.718C76.6809 49.718 75.2996 49.803 74.1273 48.0915C73.0362 46.4651 74.5452 43.3716 74.5452 43.3716C74.5452 43.3716 73.8603 41.9259 74.3594 41.4475C74.3594 41.4475 74.6612 41.203 75.5202 41.1393L76.5764 39.1301C76.5764 39.1301 75.3693 39.2045 74.6496 38.3966C73.9764 37.6206 73.93 37.2698 74.4407 37.0572C74.9862 36.8127 80.0121 35.9729 83.4711 36.0792C83.4711 36.0792 84.6782 35.9729 85.7112 37.8864C85.6996 37.8864 86.2104 38.6624 85.3514 38.8431ZM72.3398 46.5608C71.8987 47.5175 70.7264 48.538 69.2755 47.9002C67.8362 47.2624 65.5496 42.9783 65.5496 42.9783C65.5496 42.9783 64.6791 41.3838 64.5166 41.4157C64.5166 41.4157 64.3309 41.1074 64.2148 42.8508C64.0987 44.5941 64.238 47.9852 63.4836 48.5168C62.7639 49.0483 61.8934 48.8357 61.4407 48.2085C61.0344 47.5919 60.8603 46.1249 61.0809 43.5524C61.3478 40.9798 61.9978 38.2372 62.8335 37.3761C63.6693 36.5257 64.3425 37.1422 64.5978 37.3655C64.5978 37.3655 65.7121 38.2903 67.5577 41.0117L67.8827 41.5113C67.8827 41.5113 69.5541 44.0839 69.7282 44.0733C69.7282 44.0733 69.8675 44.1902 69.9836 44.1051C70.1577 44.0626 70.088 43.2334 70.088 43.2334C70.088 43.2334 69.7398 40.4377 68.2193 35.6965C68.2193 35.6965 67.9871 35.1012 68.1496 34.5484C68.3005 33.985 68.9157 34.2508 68.9157 34.2508C68.9157 34.2508 71.2836 35.3351 72.4211 38.8644C73.547 42.4255 72.7809 45.604 72.3398 46.5608ZM60.7094 37.493C60.5121 37.8545 60.396 38.3754 59.3978 38.5135C59.3978 38.5135 49.8452 39.1089 49.3925 39.7254C49.3925 39.7254 49.0559 40.0869 49.5782 40.1932C50.1005 40.2888 52.2594 40.5546 53.3041 40.6077C54.4184 40.6184 58.1791 40.6503 59.5255 42.1917C59.5255 42.1917 60.3264 42.9252 60.2916 44.5835C60.2568 46.2844 59.9318 46.8797 59.2121 47.4962C58.4577 48.0703 51.9809 50.7279 47.8023 46.6458C47.8023 46.6458 45.8755 44.6792 48.4639 43.1909C48.4639 43.1909 50.3327 42.1598 55.08 43.3716C55.08 43.3716 56.5193 43.85 56.4496 44.3284C56.3684 44.8386 55.2657 45.3808 53.6639 45.3489C52.1085 45.3064 50.971 44.626 51.1916 44.7323C51.4005 44.8067 49.5201 43.9032 48.9398 44.5197C48.3594 45.0831 48.4987 45.4339 49.0675 45.7847C50.5184 46.5395 56.1246 46.2737 57.7961 44.5729C57.7961 44.5729 58.4577 43.8819 57.4478 43.3185C56.438 42.787 53.5478 42.4681 52.4219 42.4149C51.3425 42.3618 47.3264 42.4255 46.746 41.4475C46.746 41.4475 46.1657 40.7885 46.8041 38.9175C47.4773 36.9615 52.155 36.2068 54.1746 36.0367C54.1746 36.0367 59.7344 35.856 60.7559 36.8977C60.7443 36.8977 60.8835 37.1422 60.7094 37.493ZM44.9237 48.9632C44.2505 49.4203 42.8228 49.2184 42.4166 48.7081C42.0103 48.251 41.871 46.4332 41.9523 43.5842C42.0335 40.7034 42.1032 37.1316 42.7764 36.5682C43.496 35.9941 43.9371 36.4938 44.2157 36.8871C44.5175 37.2698 44.8773 37.695 44.9585 38.5986C45.0282 39.5022 45.2603 44.2433 45.2603 44.2433C45.2603 44.2433 45.5621 48.5168 44.9237 48.9632ZM46.3746 33.6767C44.413 34.272 43.0666 34.07 41.9291 33.6236C41.43 34.4208 41.1398 34.6654 40.7568 34.7185C40.1996 34.7717 39.7005 33.9531 39.6077 33.6874C39.5148 33.4854 39.2478 33.1452 39.5728 32.3373C38.4585 31.4231 38.3773 30.19 38.563 29.3608C38.8416 28.404 40.7219 24.7684 46.4443 24.3432C46.4443 24.3432 49.2416 24.1519 49.7175 25.5232H49.7987C49.7987 25.5232 52.5148 25.5338 52.4568 27.745C52.4219 29.9667 49.4389 32.7306 46.3746 33.6767ZM41.0353 28.7548C40.455 29.6053 40.4318 30.1155 40.6987 30.4663C41.3603 29.5415 42.5675 28.0851 44.3434 26.9796C42.9737 27.0859 41.8246 27.628 41.0353 28.7548ZM48.9398 27.3304C47.1407 27.5749 44.355 29.786 43.0318 31.5932C45.063 31.9333 48.6496 31.8058 50.2398 28.8399C50.2282 28.8399 50.9943 27.0008 48.9398 27.3304ZM97.7827 44.4559C96.7032 46.1781 93.6737 49.7711 89.6344 48.9313C88.2996 51.8972 87.1853 54.8844 86.5469 59.3704C86.5469 59.3704 86.4077 60.2421 85.6184 59.9338C84.8407 59.6787 83.5407 58.4881 83.2853 56.8404C83.0068 54.6718 84.063 51.0043 86.2103 46.8053C85.5835 45.8698 85.1541 44.5304 85.5255 42.6275C85.5255 42.6275 86.0711 39.0982 89.9362 35.9091C89.9362 35.9091 90.4005 35.537 90.6675 35.654C90.9693 35.7709 90.83 36.919 90.5862 37.4718C90.3425 38.0246 88.613 40.7672 88.613 40.7672C88.613 40.7672 87.5336 42.6169 87.8353 44.0733C89.8666 41.2137 94.4862 35.4414 97.3532 37.2592C98.3166 37.8864 98.7577 39.2577 98.7577 40.7353C98.7461 42.0428 98.4095 43.4248 97.7827 44.4559ZM96.9469 39.9274C96.9469 39.9274 96.7845 38.7899 95.5773 40.0443C94.5327 41.0967 92.6523 43.0846 91.1318 45.7741C92.7219 45.6147 94.2541 44.8174 94.7184 44.4134C95.4728 43.7969 97.2255 42.1385 96.9469 39.9274ZM40.5943 41.3731C40.3737 43.9457 39.2943 48.2723 31.6451 50.409C26.596 51.8015 21.8255 51.1318 19.2255 50.5259C19.1675 51.472 19.0514 51.876 18.8889 52.0354C18.6684 52.2374 17.0201 53.1091 16.1148 51.876C15.7085 51.2913 15.4996 50.2283 15.3835 49.2821C9.53354 46.8159 6.84068 43.2653 6.73621 43.1059C6.60853 42.9889 5.27371 41.7133 6.60853 40.1506C7.8621 38.7368 11.9594 37.3229 15.6505 36.7489C15.7782 33.8574 16.1496 31.6782 16.5907 30.679C17.1246 29.5202 17.7978 30.562 18.3782 31.3487C18.8657 31.9333 19.1559 34.4527 19.1791 36.4619C21.5934 36.3556 23.021 36.515 25.7139 36.9615C29.2193 37.5462 31.5639 39.1833 31.355 41.0436C31.2041 42.872 29.3701 43.6268 28.6737 43.6799C27.9425 43.7331 26.805 43.2547 26.805 43.2547C26.0273 42.9145 26.7469 42.6169 27.6871 42.2448C28.7085 41.7877 28.4764 41.32 28.4764 41.32C28.0934 40.2995 23.5434 39.5872 19.0166 39.5872C18.9934 41.8728 19.121 45.6678 19.1791 47.8789C22.3478 48.4317 24.7157 48.3254 24.7157 48.3254C24.7157 48.3254 36.2764 48.0278 36.6246 41.2668C36.9844 34.4953 25.0987 28.0001 16.3121 25.9378C7.53711 23.833 2.56925 25.3 2.13978 25.5019C1.6755 25.7146 2.10496 25.7783 2.10496 25.7783C2.10496 25.7783 2.58085 25.8421 3.40496 26.0972C4.2755 26.3524 3.60228 26.767 3.60228 26.767C2.10496 27.2028 0.421924 26.9264 0.0969235 26.2992C-0.228077 25.672 0.317461 25.1086 0.944247 24.3007C1.57103 23.4503 2.25585 23.4822 2.25585 23.4822C13.1085 20.0379 26.3291 26.2673 26.3291 26.2673C38.7139 32.0184 40.8264 38.7581 40.5943 41.3731ZM7.83889 41.0223C6.60853 41.5751 7.45586 42.3724 7.45586 42.3724C9.76568 44.6473 12.6094 46.0718 15.3139 46.9541C15.6273 43.0315 15.5809 41.6495 15.6157 39.6723C11.3907 39.938 8.95318 40.5546 7.83889 41.0223Z" fill="white"/>
<path d="M120.765 40.2144V41.6176C120.765 41.9259 120.498 42.1704 120.161 42.1704H112.861C112.861 42.5212 112.872 42.8295 112.872 43.1165C112.872 45.1894 112.779 46.8797 112.559 48.7825C112.524 49.0695 112.269 49.2822 111.967 49.2822H110.388C110.226 49.2822 110.075 49.2184 109.97 49.1121C109.866 49.0058 109.808 48.8569 109.831 48.7081C110.052 46.8159 110.156 45.1469 110.156 43.1165C110.156 42.8189 110.156 42.5106 110.145 42.1704H102.925C102.588 42.1704 102.321 41.9259 102.321 41.6176V40.2144C102.321 39.9061 102.588 39.6616 102.925 39.6616H110.04C109.889 37.3761 109.587 35.1756 109.1 32.9432C109.077 32.805 109.111 32.6668 109.204 32.5605C109.297 32.4542 109.436 32.3904 109.587 32.3904H111.294C111.561 32.3904 111.781 32.5605 111.839 32.805C112.315 35.1118 112.617 37.3548 112.768 39.6616H120.161C120.486 39.6616 120.765 39.9168 120.765 40.2144Z" fill="white"/>
<path d="M110.829 29.0848C107.057 20.5911 100.684 13.3518 92.3969 8.14289C83.9121 2.81706 73.9648 0 63.6344 0C46.5487 0 30.6934 7.77082 21.2335 20.7931C21.1291 20.9313 21.1059 21.112 21.1639 21.2714C21.2219 21.4415 21.3612 21.5585 21.5353 21.6116L22.8585 22.0262C22.9398 22.0475 23.021 22.0581 23.0907 22.0581C23.3344 22.0581 23.5666 21.9411 23.7059 21.7604C28.0469 15.9137 33.9202 11.0556 40.6987 7.69641C47.6978 4.2309 55.6255 2.39184 63.6228 2.39184C73.2916 2.39184 82.6121 5.00692 90.5978 9.93943C98.3862 14.755 104.434 21.484 108.09 29.3824C108.194 29.6163 108.45 29.7758 108.728 29.7758H110.307C110.492 29.7758 110.667 29.6907 110.759 29.5525C110.876 29.4143 110.899 29.2442 110.829 29.0848ZM23.0907 21.6966C23.0559 21.6966 23.021 21.686 22.9862 21.6754C23.021 21.686 23.0559 21.6966 23.0907 21.6966C23.1023 21.6966 23.1139 21.6966 23.1139 21.6966C23.1139 21.6966 23.1023 21.6966 23.0907 21.6966ZM108.403 29.5844C108.438 29.6057 108.473 29.6269 108.508 29.6376C108.473 29.6163 108.438 29.6057 108.403 29.5844Z" fill="url(#paint0_radial_2_131)"/>
<defs>
<radialGradient id="paint0_radial_2_131" cx="0" cy="0" r="1" gradientUnits="userSpaceOnUse" gradientTransform="translate(109.346 29.7222) scale(88.2287 80.8043)">
<stop offset="0.00708621" stop-color="white"/>
<stop offset="0.0300991" stop-color="#CBFFFF"/>
<stop offset="0.0570069" stop-color="#96FFFF"/>
<stop offset="0.0842769" stop-color="#68FFFF"/>
<stop offset="0.1113" stop-color="#43FFFF"/>
<stop offset="0.1382" stop-color="#25FFFF"/>
<stop offset="0.1647" stop-color="#11FFFF"/>
<stop offset="0.1908" stop-color="#04FFFF"/>
<stop offset="0.2159" stop-color="#00FFFF"/>
<stop offset="1" stop-color="#0000FF" stop-opacity="0"/>
</radialGradient>
</defs>
</svg>
