<svg width="135" height="55" viewBox="0 0 135 55" fill="none" xmlns="http://www.w3.org/2000/svg">
<path d="M135 0H0V55H135V0Z" fill="#ED1D24"/>
<path d="M114.244 12.8172V4.39879H91.1027L87.2969 32.5228L83.531 4.39892H75.1857L76.1205 11.9033C75.1566 9.98088 71.7399 4.39892 64.2208 4.39892C64.1713 4.39565 55.8642 4.39892 55.8642 4.39892L55.8322 45.3919L49.7495 4.39892L38.82 4.3925L32.5274 46.8668L32.5307 4.39865H22.0705L18.2995 28.2566L14.6264 4.39892H4.16284V50.5755H12.4027V28.3185L16.1508 50.575H20.5315L24.2269 28.3185V50.575H40.112L41.0759 43.4696H47.4714L48.432 50.575L64.0274 50.5847H64.0401V50.575H64.0498H64.0595V35.5859L65.9714 35.304L69.9294 50.5847H69.9392H77.9865H77.996L77.9927 50.575H78.007H78.0167L72.8226 32.6653C75.4548 30.6945 78.4269 25.6895 77.6359 20.9015V20.8984C77.6454 20.9632 82.5386 50.6045 82.5386 50.6045L92.1323 50.575L98.6878 8.71969V50.5751H114.245V42.2702H106.86V31.6799H114.245V23.2486H106.86V12.8172H114.244ZM42.0465 36.147L44.3089 16.4057L46.6579 36.147H42.0465ZM65.9981 27.0316C65.364 27.3429 64.7028 27.4986 64.0591 27.4986V12.6454C64.0703 12.6454 64.0833 12.6424 64.0992 12.6424C64.7445 12.6391 69.5558 12.84 69.5558 19.9909C69.5558 23.7315 67.9194 26.0884 65.9981 27.0316ZM130.847 42.2637V50.5685H115.671V4.3925H123.842V42.2637H130.847Z" fill="white"/>
</svg>
