<svg width="160" height="46" viewBox="0 0 160 46" fill="none" xmlns="http://www.w3.org/2000/svg">
<g clip-path="url(#clip0_2_257)">
<path d="M0 46V0H32.8072V46H0ZM28.0598 41.3661V4.63359H4.72416V41.3661H28.0598Z" fill="#FFD520"/>
<path d="M54.6061 20.6326H52.5764C49.9162 16.9525 47.2671 13.2949 44.6298 9.15509V20.6326H42.3367V4.62231H44.3661C47.0266 8.27985 49.6754 11.915 52.2898 16.0326V4.62231H54.5832V20.6326H54.6061Z" fill="white"/>
<path d="M59.9269 14.3048C60.5805 12.2068 61.2341 10.2545 61.8189 7.78641C62.4725 10.2547 63.0574 12.2068 63.6651 14.3048H59.9269ZM61.0046 4.63358L55.3398 20.6326H57.771L59.1928 16.2682H64.1237L65.4079 20.6326H68.5384L63.3667 4.62231H61.0736L61.0046 4.63358Z" fill="white"/>
<path d="M71.199 20.6326V6.77654H66.8987V4.63359H78.2742V6.77654H73.9742V20.6326H71.1648H71.199Z" fill="white"/>
<path d="M79.2258 20.6326V4.62231H82.0122V20.6326H79.2258Z" fill="white"/>
<path d="M90.6471 18.5906C87.7231 18.5906 86.6909 15.4379 86.6909 12.3749C86.6909 9.31195 87.8376 6.6081 90.6471 6.6081C93.4567 6.6081 94.5919 9.42435 94.5919 12.3749C94.5919 15.3258 93.5713 18.5906 90.6471 18.5906ZM90.6471 20.8345C94.9242 20.8345 97.5845 17.1098 97.5845 12.3302C97.5845 7.84246 94.6375 4.27463 90.6471 4.27463C86.6567 4.27463 83.7095 7.84246 83.7095 12.3302C83.7095 17.1768 86.3701 20.9131 90.6471 20.9131V20.8345Z" fill="white"/>
<path d="M111.529 20.6326H109.499C106.839 16.9525 104.19 13.2949 101.552 9.15509V20.6326H99.259V4.62231H101.289C103.949 8.27985 106.598 11.915 109.212 16.0326V4.62231H111.506V20.6326H111.529Z" fill="white"/>
<path d="M116.884 14.3048C117.537 12.2068 118.191 10.2545 118.776 7.78642C119.429 10.2547 120.014 12.2068 120.622 14.3048H116.838H116.884ZM117.962 4.63359L112.308 20.6438H114.739L116.161 16.2793H121.092L122.376 20.6438H125.507L120.289 4.63359H117.996H117.962Z" fill="white"/>
<path d="M126.321 4.62231H129.108V18.4783H134.646V20.6326H126.321V4.62231Z" fill="white"/>
<path d="M52.8745 34.0288V40.6369C51.399 41.2465 49.8203 41.5812 48.2191 41.6242C43.4028 41.6242 40.3638 37.9667 40.3638 33.2547C40.3638 28.89 43.4028 25.0645 48.3107 25.0645C49.7307 25.0722 51.1143 25.5027 52.2783 26.2986L51.3724 28.1946C50.4663 27.6646 49.435 27.3748 48.3798 27.3534C45.3867 27.3534 43.3569 29.6646 43.3569 33.2996C43.3569 36.9346 45.6502 39.3357 48.1044 39.3357C48.7811 39.3643 49.4545 39.2292 50.0651 38.9429V34.0288H52.8745Z" fill="white"/>
<path d="M62.9085 27.4875H58.2299V31.8746H62.8166V34.0288H58.2299V39.2009H63.7456V41.355H55.4207V25.3225H62.8973V27.4766L62.9085 27.4875Z" fill="white"/>
<path d="M71.5545 39.3355C68.6305 39.3355 67.6098 36.1827 67.6098 33.12C67.6098 30.0571 68.7565 27.3531 71.5545 27.3531C74.3525 27.3531 75.5108 30.1692 75.5108 33.12C75.5106 36.0706 74.4786 39.3355 71.5545 39.3355ZM71.5545 41.5795C75.8316 41.5795 78.4921 37.8545 78.4921 33.0751C78.4921 28.5874 75.545 25.0196 71.5545 25.0196C67.5642 25.0196 64.6172 28.5874 64.6172 33.0751C64.6172 37.8994 67.2773 41.6242 71.5545 41.6242V41.5795Z" fill="white"/>
<path d="M91.9658 34.0288V40.6369C90.4903 41.2465 88.9112 41.5812 87.3101 41.6242C82.494 41.6242 79.4551 37.9667 79.4551 33.2547C79.4551 28.89 82.494 25.0645 87.402 25.0645C88.8218 25.0722 90.2055 25.5027 91.3695 26.2986L90.4637 28.1946C89.5575 27.6646 88.526 27.3748 87.4706 27.3534C84.4778 27.3534 82.448 29.6646 82.448 33.2996C82.448 36.9346 84.7415 39.3357 87.1954 39.3357C87.872 39.3643 88.5455 39.2292 89.1564 38.9429V34.0288H91.9658Z" fill="white"/>
<path d="M97.3438 27.4875H98.5823C99.8868 27.3612 101.049 28.2934 101.178 29.5701C101.195 29.7358 101.194 29.9029 101.174 30.0682C101.38 31.6105 100.27 33.0242 98.6935 33.226C98.6338 33.2335 98.5738 33.2395 98.5135 33.2434L97.3668 33.3107V27.4764L97.3438 27.4875ZM104.454 41.344L101.208 34.7132C102.972 33.7552 104.059 31.93 104.041 29.9561C104.041 26.8482 102.103 25.3338 98.9722 25.3338H94.6033V41.344H97.4127V35.3076H98.6742L101.311 41.344H104.511H104.454Z" fill="white"/>
<path d="M109.075 35.0161C109.728 32.9181 110.382 30.9658 110.967 28.4974C111.621 30.9658 112.205 32.9067 112.813 35.0161H109.029H109.075ZM110.153 25.3225L104.5 41.3326H106.942L108.364 36.9679H113.295L114.579 41.3326H117.709L112.492 25.3225H110.199H110.153Z" fill="white"/>
<path d="M122.996 25.3225H118.627V41.3326H121.436V35.3076H122.698C125.649 35.327 128.057 33.002 128.077 30.1145C128.078 30.0616 128.077 30.0087 128.076 29.9559C128.03 26.848 126.092 25.3225 122.996 25.3225ZM122.594 33.232L121.448 33.2993V27.4766H122.709C124.015 27.3628 125.168 28.3061 125.284 29.5835C125.299 29.7413 125.296 29.8999 125.278 30.0569C125.489 31.6048 124.378 33.0269 122.796 33.2334C122.717 33.2436 122.639 33.2506 122.56 33.2547L122.594 33.232Z" fill="white"/>
<path d="M141.033 41.344H138.224V33.6362H132.399V41.344H129.612V25.3225H132.399V31.4705H138.224V25.3671H141.033V41.3326V41.344Z" fill="white"/>
<path d="M143.717 41.344V25.3225H146.503V41.3326H143.717V41.344Z" fill="white"/>
<path d="M159.117 28.2396C158.253 27.7047 157.26 27.3992 156.239 27.3534C153.383 27.3534 151.308 29.6643 151.308 33.2993C151.308 36.9343 153.602 39.3355 156.308 39.3355C157.302 39.333 158.276 39.0572 159.117 38.539L159.886 40.525C158.784 41.2244 157.506 41.6125 156.193 41.6468C151.377 41.6468 148.338 37.9893 148.338 33.2769C148.338 28.9127 151.354 25.0869 156.239 25.0869C157.589 25.1279 158.897 25.5572 160 26.3211L159.117 28.2396Z" fill="white"/>
</g>
<defs>
<clipPath id="clip0_2_257">
<rect width="160" height="46" fill="white"/>
</clipPath>
</defs>
</svg>
