<svg width="160" height="33" viewBox="0 0 160 33" fill="none" xmlns="http://www.w3.org/2000/svg">
<path fill-rule="evenodd" clip-rule="evenodd" d="M0.14183 1.03883C0.219867 1.61029 0.296099 2.09052 0.311144 2.10635C0.32619 2.12218 1.33024 2.23952 2.54212 2.36715C3.754 2.49458 4.79215 2.64496 4.84912 2.70116C4.9061 2.75735 4.95264 8.54236 4.95264 15.5567C4.95264 26.0476 4.90469 28.3395 4.68202 28.4752C4.53296 28.5661 3.54857 28.7368 2.49397 28.8552C1.43957 28.9733 0.508142 29.1405 0.424087 29.227C0.340032 29.3134 0.211843 29.7848 0.139223 30.2745L0.00722179 31.1649H8.75819H17.5092L17.3898 30.6966C17.3244 30.4391 17.2187 29.9716 17.1551 29.6577C17.0855 29.3144 16.9095 29.0845 16.7133 29.0805C15.7875 29.0613 11.8418 28.5281 11.7172 28.4052C11.5258 28.2164 11.5298 2.8456 11.7212 2.65664C11.9611 2.41998 15.0304 2.92653 16.0511 3.37115C17.1916 3.86801 18.186 4.77744 18.7479 5.83724C19.3217 6.91941 19.4641 9.61819 19.0262 11.1042C18.367 13.341 16.5013 15.1464 14.0328 15.9363C13.452 16.1221 12.9184 16.33 12.847 16.3983C12.7754 16.4666 12.6528 16.9992 12.5744 17.5822L12.4319 18.642L13.3064 18.4979C16.5384 17.9647 20.2796 16.4036 22.3904 14.7073C24.5614 12.9624 25.8527 10.5328 26.0623 7.79796C26.2714 5.07306 24.9849 3.01498 22.2395 1.68251C19.5951 0.398911 15.8046 0.00455085 6.08728 0.00178063L0 0L0.14183 1.03883ZM30.5303 0.138709C30.5303 0.160475 30.6258 0.617362 30.7423 1.15399C30.9803 2.24763 30.8804 2.2039 33.8062 2.49418C35.0281 2.61548 35.1975 2.68454 35.3696 3.13074C35.4879 3.43784 35.5397 8.40068 35.5038 15.9709C35.4548 26.3042 35.3995 28.3383 35.1636 28.482C35.0087 28.5764 34.3768 28.7101 33.7593 28.7794C30.7564 29.116 30.9799 29.0176 30.7429 30.1071C30.626 30.6451 30.5303 31.1034 30.5303 31.1252C30.5303 31.1471 34.2807 31.1649 38.8646 31.1649H47.1991L47.0799 30.6966C47.0145 30.4391 46.9088 29.9716 46.8452 29.6577C46.7816 29.3441 46.6707 29.0873 46.5989 29.0873C46.2821 29.0873 43.0244 28.6779 42.617 28.5868L42.1656 28.4861V15.6501V2.81434L42.8176 2.70254C43.1761 2.6412 44.2048 2.48884 45.1035 2.36398C46.6577 2.1483 46.7429 2.11031 46.8492 1.58634C46.9106 1.2834 47.0145 0.824733 47.0799 0.567301L47.1991 0.0989363H38.8648C34.2809 0.0989363 30.5303 0.116745 30.5303 0.138709ZM52.5995 0.395745C52.6007 0.55899 52.6567 1.02043 52.7239 1.42112C52.8368 2.09527 52.908 2.15938 53.6746 2.27811C55.868 2.61766 55.7848 2.55434 58.549 5.98703C63.9397 12.682 65.8638 15.2318 65.7139 15.4819C65.4212 15.9703 60.7055 21.9098 58.6037 24.4373C55.5862 28.0658 54.9753 28.5847 53.3975 28.8587C52.6966 28.9806 52.0613 29.1486 51.9856 29.2321C51.91 29.3156 51.714 29.7848 51.5497 30.2745L51.2514 31.1649H57.76H64.2687L64.1526 30.4724C64.0886 30.0915 64.0354 29.635 64.0342 29.4577C64.0324 29.208 63.6729 29.0805 62.435 28.8906L60.8379 28.6456L61.2594 27.8276C62.5928 25.239 67.6366 17.5167 67.8428 17.7476C67.9212 17.8354 69.0528 19.1986 70.3576 20.7766C74.7634 26.1053 78.0123 29.5182 81.0625 32.0221L82.2537 33L83.725 32.7139C84.5342 32.5566 85.3102 32.3909 85.4494 32.3458C85.6045 32.2956 84.7016 30.9409 83.1163 28.8453C78.7515 23.0751 71.6608 13.3677 71.6582 13.1585C71.6552 12.9165 77.7928 5.95359 79.6338 4.1106C80.8946 2.84838 81.0396 2.76289 82.4431 2.45481C84.0133 2.11031 84.0103 2.11308 84.1509 0.890427L84.242 0.0989363H78.3294H72.4169L72.536 0.956318C72.6963 2.10992 72.732 2.14632 73.8444 2.29196C74.3774 2.36161 74.9359 2.49339 75.0856 2.58461C75.2926 2.71085 74.7485 3.64303 72.801 6.49813C71.395 8.55957 70.1171 10.3505 69.961 10.4781C69.7295 10.6677 69.4876 10.4445 68.6434 9.26321C66.2578 5.92411 64.17 2.76606 64.2778 2.6598C64.3413 2.59708 65.0339 2.45204 65.8168 2.33747L67.2405 2.12891L67.5421 1.12748C67.708 0.576799 67.8436 0.119911 67.8436 0.112392C67.8436 0.10507 64.4132 0.0989363 60.2204 0.0989363C53.5771 0.0989363 52.5975 0.137126 52.5995 0.395745ZM98.1356 1.11382V2.12871L99.5599 2.33727C100.343 2.45204 101.037 2.59747 101.101 2.66079C101.219 2.77754 98.4427 10.193 94.985 18.9958C92.5881 25.0976 91.3369 28.0478 91.0089 28.3714C90.8679 28.5105 90.0029 28.7289 89.0869 28.8567C88.1707 28.9846 87.361 29.1553 87.2876 29.2365C87.2142 29.3178 87.1021 29.7848 87.0385 30.2745L86.9229 31.1649H93.5514H100.18L100.047 30.1791C99.9745 29.637 99.8981 29.1767 99.8774 29.1565C99.857 29.1361 99.073 29.016 98.1356 28.8894C97.1981 28.7628 96.4035 28.632 96.3696 28.5987C96.2645 28.495 97.2936 24.1725 98.1863 20.9684L99.0391 17.9075L99.9414 17.7802C100.438 17.7104 102.471 17.5871 104.461 17.5066L108.077 17.36L108.345 17.9304C109.235 19.8264 112.187 28.4648 111.987 28.5868C111.869 28.6587 108.738 29.0873 108.331 29.0873C108.251 29.0873 108.091 29.4211 107.976 29.8293C107.568 31.2791 106.9 31.1649 115.789 31.1649H123.814V30.7444C123.814 30.5131 123.759 30.0547 123.692 29.7254C123.574 29.1427 123.527 29.1207 121.937 28.8987C121.038 28.7732 120.156 28.6282 119.977 28.5768C119.234 28.3625 115.748 19.7481 111.386 7.34364C110.491 4.79841 109.798 2.67781 109.845 2.63091C109.893 2.58402 110.563 2.45342 111.335 2.34044C112.674 2.14434 112.744 2.10754 112.859 1.53747C112.926 1.2088 112.981 0.750729 112.981 0.519415V0.0989363H105.558H98.1356V1.11382ZM126.825 0.840958C126.831 2.28879 126.856 2.3066 129.055 2.45599C130.154 2.53059 131.185 2.6414 131.346 2.70215C131.597 2.79713 131.637 4.5859 131.637 15.53C131.637 25.4793 131.583 28.292 131.386 28.4531C131.199 28.6058 127.977 29.0873 127.141 29.0873C127.086 29.0873 126.984 29.4213 126.915 29.8293C126.845 30.2375 126.751 30.7049 126.707 30.8681C126.637 31.1283 127.64 31.1649 134.861 31.1649H143.096L142.961 30.1756C142.887 29.6314 142.814 29.1724 142.799 29.1553C142.784 29.1383 141.778 29.0048 140.564 28.8585L138.358 28.5926L138.305 23.0262L138.251 17.4599L139.78 17.3186C140.621 17.2408 141.376 17.2525 141.459 17.3445C141.543 17.4365 142.91 18.9803 144.498 20.7754C148.057 24.799 153.584 30.3204 155.239 31.5063L156.473 32.3904L158.192 32.163C159.137 32.0379 159.95 31.8959 159.998 31.8472C160.046 31.7983 159.319 30.8681 158.382 29.7798C157.446 28.6915 155.762 26.6 154.64 25.1318C152.322 22.0982 147.64 15.2605 147.728 15.0379C147.76 14.9568 148.475 14.3527 149.316 13.6957C151.012 12.3702 152.456 10.6507 153.206 9.06078C153.782 7.8407 153.885 5.75611 153.423 4.66544C153.043 3.76967 151.813 2.45718 150.812 1.88058C149.711 1.246 147.404 0.656739 145.036 0.404848C143.964 0.291071 139.428 0.197873 134.955 0.197873H126.823L126.825 0.840958ZM141.225 2.88716C143.359 3.32149 144.69 3.99069 145.764 5.16903C146.787 6.29076 146.984 6.95661 146.836 8.78059C146.602 11.6519 144.36 13.8303 140.892 14.5555C140.16 14.7085 139.268 14.8351 138.909 14.8371L138.257 14.8404V8.70639V2.57234H138.968C139.359 2.57234 140.374 2.71402 141.225 2.88716ZM105.509 9.6732C106.419 12.2728 107.163 14.5112 107.163 14.6475C107.163 14.842 106.418 14.8644 103.702 14.7514C101.799 14.6723 100.224 14.5899 100.201 14.5686C100.126 14.4965 103.651 4.95097 103.753 4.94899C103.809 4.9478 104.599 7.07375 105.509 9.6732Z" fill="white"/>
</svg>
