<svg width="121" height="54" viewBox="0 0 121 54" fill="none" xmlns="http://www.w3.org/2000/svg">
<path fill-rule="evenodd" clip-rule="evenodd" d="M21.2363 0.0810472C18.723 0.423855 16.5851 2.41421 15.8628 5.0838C15.749 5.50431 15.7283 5.68661 15.7298 6.25071C15.7343 7.87033 16.1152 9.49601 16.8056 10.8421C17.445 12.0889 18.0231 12.8347 19.4529 14.2581C20.5833 15.3835 20.8798 15.744 20.9915 16.1291C21.0428 16.3058 21.0392 16.3651 20.9687 16.5014C20.7755 16.8747 20.323 16.9893 19.2038 16.9485C18.7572 16.9322 14.2537 16.9073 9.1959 16.8932L0 16.8675V21.1129V25.3581L12.617 25.3422L25.2341 25.3264L25.6971 25.2175C27.0374 24.9026 28.1414 24.2852 29.1209 23.303C30.1307 22.2904 30.7652 21.1293 31.0485 19.7758C31.1327 19.3739 31.19 18.5616 31.2595 16.7905C31.288 16.0617 31.2789 15.8447 31.2055 15.5049C31.0951 14.9939 30.7063 14.1853 30.3413 13.7075C29.9726 13.2248 26.7656 9.42664 26.359 8.99096C25.8649 8.46163 25.8009 8.0731 26.1721 7.85639C26.5682 7.62513 26.7919 7.61721 32.9636 7.6153L38.7897 7.6135L38.8027 16.4717L38.8157 25.3299H42.9313H47.047L47.06 16.4719L47.073 7.61397L52.6418 7.60086L58.2107 7.58779V3.80796V0.02813L39.9732 0.0205184C25.0876 0.0143473 21.644 0.0254554 21.2363 0.0810472ZM63.1586 0.0409866C63.1197 0.107429 55.7519 25.0651 55.7273 25.2141L55.7039 25.3556H59.8456C63.7423 25.3556 63.9894 25.3502 64.0228 25.2656C64.0424 25.216 64.2783 24.597 64.5472 23.8899C64.816 23.1828 65.1052 22.4248 65.1898 22.2054L65.3436 21.8066L69.7451 21.8197L74.1467 21.8329L74.7716 23.5299C75.1153 24.4633 75.4145 25.256 75.4366 25.2913C75.4681 25.3418 76.3395 25.3556 79.5122 25.3556C83.0002 25.3556 83.5476 25.3455 83.5476 25.2811C83.5476 25.2402 81.9873 19.634 80.0801 12.8231C78.173 6.01214 76.5864 0.341162 76.5542 0.220979L76.4956 0.00241688H69.8384C66.177 0.00241688 63.1711 0.0197475 63.1586 0.0409866ZM86.75 12.665L86.763 25.3299L91.3027 25.343L95.8425 25.3561L95.8557 21.1291L95.8688 16.9021L96.3061 17.4126C98.5345 20.0145 100.658 22.2874 101.991 23.4972C103.524 24.8885 103.876 25.0993 104.936 25.2582C105.22 25.3008 107.585 25.3246 113.167 25.3408L121 25.3636V21.1169V16.8702L115.045 16.8699C108.672 16.8696 108.529 16.8645 107.769 16.6109C107.215 16.4257 106.828 16.1277 106.729 15.8103C106.698 15.7099 106.72 15.6994 107.026 15.6681C109.168 15.4487 111.179 12.7227 111.773 9.23343C111.896 8.51012 111.896 7.02833 111.774 6.41327C111.468 4.87572 110.75 3.58611 109.504 2.33768C108.321 1.15082 107.2 0.493742 105.721 0.118434C105.417 0.0414485 104.521 0.0320399 96.0617 0.0168177L86.737 0L86.75 12.665ZM102.445 6.59701C103.053 6.8815 103.436 7.32547 103.67 8.01514C103.826 8.47443 103.827 9.19934 103.672 9.63111C103.471 10.1906 103.197 10.4956 102.634 10.785L102.351 10.9305L99.097 10.9452L95.8431 10.9599V8.69341V6.42695L98.9942 6.44171L102.145 6.45641L102.445 6.59701ZM71.4512 11.146C72.1622 13.5839 72.744 15.603 72.744 15.633C72.744 15.6706 71.8947 15.6874 69.9917 15.6874C68.4405 15.6874 67.2394 15.6677 67.2394 15.6422C67.2394 15.5977 69.9904 6.68444 70.0507 6.53355C70.0734 6.47678 70.0917 6.49035 70.12 6.58498C70.1411 6.65569 70.7401 8.70816 71.4512 11.146ZM0.000463148 28.5826C0.000720376 28.6038 1.67414 34.2909 3.71916 41.2206L7.43738 53.82L11.2426 53.8326L15.0478 53.8452L16.8722 47.8744C18.1345 43.7432 18.7089 41.9331 18.7366 41.9992C18.7587 42.0518 19.4604 44.6173 20.2959 47.7003C21.1315 50.7833 21.8501 53.4274 21.8928 53.5761L21.9703 53.8464L25.6846 53.8332L29.3988 53.82L33.0902 41.2463C35.1204 34.3307 36.7819 28.6437 36.7825 28.6083C36.7834 28.5574 35.9427 28.544 32.7475 28.544H28.7115L28.6072 28.8911C28.5499 29.0821 27.9876 30.9565 27.3577 33.0567C26.7277 35.1568 26.1993 36.8751 26.1833 36.8751C26.1617 36.8751 24.4401 31.2022 23.7292 28.7883L23.6572 28.544H18.7573H13.8574L12.7855 32.671C12.196 34.9408 11.6998 36.8254 11.6828 36.859C11.6658 36.8926 11.1555 35.1454 10.5487 32.9763C9.94196 30.8073 9.41367 28.9226 9.37472 28.7883L9.30393 28.544H4.65197C2.09337 28.544 0.00020592 28.5614 0.000463148 28.5826ZM102.917 28.6265C100.869 28.9911 99.1892 30.4336 98.3003 32.5917C97.8587 33.6637 97.7369 34.507 97.8449 35.7447C98.0395 37.976 98.7622 39.7534 100.208 41.5548C100.423 41.8235 101.099 42.5409 101.711 43.1491C102.56 43.9947 102.854 44.3206 102.959 44.5348C103.209 45.0434 103.123 45.311 102.639 45.5329C102.424 45.6315 102.319 45.6404 101.476 45.6326C100.967 45.6279 97.9922 45.6037 94.8656 45.5789C88.6457 45.5296 89.0003 45.5485 88.1844 45.2224C87.7581 45.052 87.0607 44.6424 86.8955 44.4655L86.7707 44.3319H86.9747C87.7447 44.3319 88.7461 43.7842 89.5462 42.9255C91.5824 40.7401 92.4911 36.7379 91.5563 34.0723C90.6676 31.5387 88.3249 29.3886 85.7955 28.7854L85.3225 28.6726H76.0623H66.8021V41.3234V53.9743H71.355H75.9079L75.9337 49.7896L75.9594 45.6049L76.3967 46.1118C79.4767 49.6817 81.9066 52.192 83.2603 53.2024C83.9266 53.6997 84.4082 53.8691 85.3579 53.94C85.6497 53.9617 90.6111 53.9502 96.3833 53.9143C105.231 53.8592 106.967 53.8367 107.444 53.7708C109.239 53.523 111.119 52.4602 112.331 51.009C113.027 50.176 113.463 49.3523 113.734 48.3592C113.867 47.8711 113.871 47.8098 113.87 46.4918C113.87 45.1515 113.867 45.1214 113.728 44.6693C113.555 44.1065 113.226 43.4647 112.83 42.915C112.474 42.4217 109.053 38.3565 108.518 37.7914C107.765 36.9953 107.742 36.5799 108.436 36.2997L108.73 36.1808L114.865 36.1667L121 36.1527V32.3483V28.544L112.164 28.5486C104.76 28.5525 103.262 28.5651 102.917 28.6265ZM42.6316 28.6854C42.5974 28.7433 35.2434 53.6628 35.2071 53.8438L35.1759 54H39.3182C43.2155 54 43.4626 53.9947 43.4959 53.91C43.5153 53.8605 43.8053 53.1026 44.1403 52.2258C44.4753 51.349 44.7653 50.5911 44.7847 50.5416C44.818 50.4568 45.0771 50.4516 49.2145 50.4516H53.6089L53.6508 50.5673C53.6738 50.6309 53.9659 51.4294 54.2997 52.3415L54.9067 54H58.9702H63.0337L63.0046 53.8546C62.9563 53.6133 56.0282 28.8874 55.9739 28.7626L55.9236 28.6468H49.289C45.64 28.6468 42.6442 28.6642 42.6316 28.6854ZM82.4673 35.2156C83.6482 35.6944 84.2116 37.3718 83.5965 38.5772C83.3193 39.1203 82.7654 39.4903 82.0715 39.5958C81.837 39.6315 80.646 39.6521 78.8176 39.6521H75.9337V37.3617V35.0714L79.059 35.0861C82.1564 35.1007 82.1868 35.1019 82.4673 35.2156ZM50.8961 39.7219C51.6228 42.221 52.2173 44.2922 52.2173 44.3245C52.2173 44.3679 51.4936 44.3833 49.4589 44.3833H46.7006L46.723 44.2676C46.7692 44.0287 49.5176 35.1787 49.5457 35.1783C49.5618 35.1781 50.1696 37.2227 50.8961 39.7219Z" fill="white"/>
</svg>
